<?xml version="1.0" encoding="utf-8"?>
<!-- Generator: Adobe Illustrator 18.1.1, SVG Export Plug-In . SVG Version: 6.00 Build 0)  -->
<svg version="1.1" id="Capa_1" xmlns="http://www.w3.org/2000/svg" xmlns:xlink="http://www.w3.org/1999/xlink" x="0px" y="0px"
	 viewBox="0 0 511.9 698" enable-background="new 0 0 511.9 698" xml:space="preserve">
<path fill="#FFFFFF" d="M54.8,698.2l19.7,0.4l11.4-132.4l2.6-31.5l50.2,163.8h24.1l50.2-159l10.5,158.1l36.7,0.4h2.2l-20.5-198.7
	h-32.8l-47.6,138.5l-5.6,17.9l-3-11.4l-44.2-144.6H82.6c-1.4,0-14.5,126.2-26.7,191.3L54.8,698.2L54.8,698.2z"/>
<path fill="#FFFFFF" d="M276.6,658.4c-1.4,9.6-4,20.1-7,31.9c16.1,5.2,31.5,7.4,45.4,7.4c38.9,0,70.7-20.5,70.7-60.7
	c0-10-2.2-20.1-11.4-30.1c-2.2-2.6-5.2-6.6-33.2-20.9c-5.6-2.6-10.5-4.8-14.5-6.6c-8.7-4.4-14.9-7.4-19.7-11.4
	c-9.2-7.8-12.7-15.3-12.7-23.1c0-14.9,11.4-28.4,33.2-28.4c17.1,0,29.7,10,37.6,24.1h3c1.8-9.6,4-17.5,7-25.3
	c-14.9-9.6-31.5-14.9-46.8-14.9c-27.9,0-49,13.5-57.7,34.5c-3,7-4.8,15.3-4.8,23.5c0,13.5,4,24.9,14,35.8
	c7.4,8.3,23.1,16.1,35.8,21.9c1.8,0.4,3,1.4,4,1.8c1.4,0.4,2.2,0.8,4.8,1.8c10.5,4,33.2,12.7,33.2,33.6c0,16.1-13.1,31-37.6,31
	c-18.3,0-32.8-10.9-40.6-25.7h-2.9V658.4z"/>
<path fill="#FFFFFF" d="M394.2,658.4c-1.4,9.6-4,20.1-7,31.9c16.1,5.2,31.5,7.4,45.4,7.4c38.9,0,70.7-20.5,70.7-60.7
	c0-10-2.2-20.1-11.4-30.1c-2.2-2.6-5.2-6.6-33.2-20.9c-5.6-2.6-10.5-4.8-14.5-6.6c-8.7-4.4-14.9-7.4-19.7-11.4
	c-9.2-7.8-12.7-15.3-12.7-23.1c0-14.9,11.4-28.4,33.2-28.4c17.1,0,29.7,10,37.6,24.1h3c1.8-9.6,4-17.5,7-25.3
	c-14.9-9.6-31.5-14.9-46.8-14.9c-27.9,0-49,13.1-57.7,34.5c-3,7-4.8,15.3-4.8,23.5c0,13.1,4,24.9,14,35.8
	c7.4,8.3,23.1,16.1,35.8,21.9c1.8,0.4,3,1.4,4,1.8c1.4,0.4,2.2,0.8,4.8,1.8c10.5,4,33.2,12.7,33.2,33.6c0,16.1-13.1,31-37.6,31
	c-18.3,0-32.8-10.9-40.6-25.7h-2.9V658.4z"/>
<path fill="#FFFFFF" d="M503,73.5c-2.6-37.6-30.6-65.1-67.7-67.7c-128-8.7-238.1-6.6-362.6,0C35.1,8,7.2,36.3,5,73.5
	c-6.6,110.1-6.6,217.2,0,330.3c2.2,37.6,30.6,65.5,67.7,67.7c120.1,7.4,239.9,7.4,362.6,0c37.6-2.2,65.1-30.6,67.7-67.7
	C510.9,291.1,510.9,181.8,503,73.5z M50.8,63.8c3-10.9,7.8-21.9,17.1-27.9c14-9.2,31.5-10.9,46.8-6.1
	c43.6,15.7,107.9,81.2,104.9,82.6c-43.6,12.7-86-1.8-128,10.9c-20.1,6.1-35.8,21.9-37.6,18.7C42.9,117.1,44.3,85.7,50.8,63.8z
	 M177,441.8c-12.7-1.8-27.9-9.2-37.6-20.1l-15.7-18.9c-42.4-51.6-46.8-121.9-57.7-187.4c27.9-6.1,56.3-7.8,84.4,0
	c24.9,7.8,24.9,35.8,26.7,34.5c18.7-12.7,26.7-9.2,40.6-9.2c53.3,0,87.4,57.7,97,107.9c3,20.1,4.8,42.4-4.8,59.5
	C286.3,449.6,225.6,445.2,177,441.8z M447.4,245.2c-20.1,79.5-35.8,181.3-114,200.1c-7.8,1.8-35.8,6.1-29.7,1.8
	c1.8-1.8,24.9-20.1,29.7-34.5c20.1-53.3,0-117.1-40.6-157.7c-57.7-56.3-140.7-71.7-223.2-65.5c-6.1,0-15.7,1.8-20.1,6.1
	c-1.8,1.8-12.7-17.1-4.8-21.9c12.7-9.2,15.7-9.2,18.7-10.9c4.8-1.8,18.7,14,24.9,9.2c4.8-3,7.8-7.8,9.2-12.7L74,157.8
	c26.7-34.5,84.4-21.9,126.8-23.5c6.1,0,14-4.8,3,4.8c-9.2,7.8-45.4,29.7-59.5,35.8c31.5-3,60.7-17.1,87.4-32.8l68.5-49.8
	c40.6-29.7,86-84.4,131-59.5c12.7,6.1,20.1,20.1,24.9,34.5C473.7,125.1,462.7,185.8,447.4,245.2z"/>
<path fill="#FFFFFF" d="M233.4,254.7c-18.7-7.8-45.4-7.8-54.6,10.9l-1.8,4.8c-3,10.9,0,23.5,3,35.8c1.8,4.8,1.8,10.9,1.8,15.7
	c-1.8,7.8-6.1,12.7-6.1,20.1c3,1.8,3-4.8,4.8-7.8c7.8-17.1,37.6-15.7,51.6-21.9c4.8-1.8,10.9-7.8,9.2-12.7c0-1.8-4.8,4.8-7.8,6.1
	c-3,1.8-7.8,1.8-12.7,1.8c-14,0-26.7-7.8-31.5-20.1c-3-6.1-1.8-15.7,4.8-20.1c31.5-23.5,67.3,29.7,73.4,65.5c3,12.7,1.8,26.7-3,38.9
	c-3,9.2-10.9,15.7-20.1,17.1c-10.9,1.8-23.5,3-32.8-3c-1.8-1.8,3-3,3-7.8s-7.8-6.1-7.8-6.1s0-9.2-7.8-14
	c-10.9-6.1-24.9-4.8-32.8,4.8c-6.1,9.2-6.1,21.9,1.8,26.7c9.2,6.1,20.1,4.8,31.5,3c4.8,0,7.8,3,14,3c6.1,0-9.2,6.1-12.7,6.1
	c-9.2,1.8-21.9,1.8-31.5-3c-3-1.8,6.1,17.1,23.5,21.9c20.1,6.1,40.6,6.1,54.6,4.8c31.5-3,46.8-43.6,45.4-75.1
	C291.1,310.7,271,268.8,233.4,254.7z"/>
<path fill="#FFFFFF" d="M347.4,95.3c-23.5,7.8-43.6,23.5-59.5,40.6l-7.8,9.2c-7.8,9.2-4.8,24.9,1.8,35.8
	c31.5,59.5,73.4,118.8,71.7,181.3c3,1.8,4.8-1.8,4.8-4.8c1.8-9.2,3-23.5,3-34.5c-1.8-56.3-35.8-104.5-48.4-157.7
	C306.8,137.7,323.8,111,347.4,95.3z"/>
<path fill="#FFFFFF" d="M6.2,698.2h31.9c-4.4,0-7.4-198.7-1.4-197.9l-31.9-0.4C10.6,499.4,11.4,698.2,6.2,698.2L6.2,698.2z"/>
</svg>
